{
	"patcher" : 	{
		"fileversion" : 1,
		"appversion" : 		{
			"major" : 8,
			"minor" : 5,
			"revision" : 6,
			"architecture" : "x64",
			"modernui" : 1
		}
,
		"classnamespace" : "rnbo",
		"rect" : [ 672.0, 125.0, 640.0, 480.0 ],
		"bglocked" : 0,
		"openinpresentation" : 0,
		"default_fontsize" : 12.0,
		"default_fontface" : 0,
		"default_fontname" : "Lato",
		"gridonopen" : 1,
		"gridsize" : [ 15.0, 15.0 ],
		"gridsnaponopen" : 1,
		"objectsnaponopen" : 1,
		"statusbarvisible" : 2,
		"toolbarvisible" : 1,
		"lefttoolbarpinned" : 0,
		"toptoolbarpinned" : 0,
		"righttoolbarpinned" : 0,
		"bottomtoolbarpinned" : 0,
		"toolbars_unpinned_last_save" : 0,
		"tallnewobj" : 0,
		"boxanimatetime" : 200,
		"enablehscroll" : 1,
		"enablevscroll" : 1,
		"devicewidth" : 0.0,
		"description" : "",
		"digest" : "",
		"tags" : "",
		"style" : "",
		"subpatcher_template" : "",
		"assistshowspatchername" : 0,
		"title" : "soopdelay",
		"boxes" : [ 			{
				"box" : 				{
					"id" : "obj-26",
					"maxclass" : "newobj",
					"numinlets" : 1,
					"numoutlets" : 1,
					"outlettype" : [ "" ],
					"patching_rect" : [ 180.0, 120.0, 66.0, 23.0 ],
					"rnbo_classname" : "samplerate",
					"rnbo_serial" : 3,
					"rnbo_uniqueid" : "samplerate_obj-26",
					"text" : "samplerate"
				}

			}
, 			{
				"box" : 				{
					"id" : "obj-24",
					"maxclass" : "newobj",
					"numinlets" : 1,
					"numoutlets" : 1,
					"outlettype" : [ "" ],
					"patching_rect" : [ 180.0, 90.0, 56.0, 23.0 ],
					"rnbo_classname" : "loadbang",
					"rnbo_serial" : 3,
					"rnbo_uniqueid" : "loadbang_obj-24",
					"text" : "loadbang"
				}

			}
, 			{
				"box" : 				{
					"id" : "obj-23",
					"maxclass" : "newobj",
					"numinlets" : 0,
					"numoutlets" : 1,
					"outlettype" : [ "" ],
					"patching_rect" : [ 75.0, 30.0, 64.0, 23.0 ],
					"rnbo_classname" : "r",
					"rnbo_serial" : 5,
					"rnbo_uniqueid" : "r_obj-23",
					"text" : "r feedback"
				}

			}
, 			{
				"box" : 				{
					"id" : "obj-20",
					"maxclass" : "newobj",
					"numinlets" : 0,
					"numoutlets" : 1,
					"outlettype" : [ "" ],
					"patching_rect" : [ 165.0, 30.0, 44.0, 23.0 ],
					"rnbo_classname" : "r",
					"rnbo_serial" : 6,
					"rnbo_uniqueid" : "r_obj-20",
					"text" : "r delay"
				}

			}
, 			{
				"box" : 				{
					"id" : "obj-18",
					"maxclass" : "newobj",
					"numinlets" : 6,
					"numoutlets" : 1,
					"outlettype" : [ "" ],
					"patching_rect" : [ 270.0, 60.0, 108.0, 23.0 ],
					"rnbo_classname" : "scale",
					"rnbo_serial" : 1,
					"rnbo_uniqueid" : "scale_obj-18",
					"text" : "scale 0 1 0 1000 5."
				}

			}
, 			{
				"box" : 				{
					"id" : "obj-17",
					"maxclass" : "newobj",
					"numinlets" : 6,
					"numoutlets" : 1,
					"outlettype" : [ "" ],
					"patching_rect" : [ 165.0, 60.0, 95.0, 23.0 ],
					"rnbo_classname" : "scale",
					"rnbo_serial" : 2,
					"rnbo_uniqueid" : "scale_obj-17",
					"text" : "scale 0 1 0 20 2."
				}

			}
, 			{
				"box" : 				{
					"id" : "obj-25",
					"maxclass" : "newobj",
					"numinlets" : 1,
					"numoutlets" : 0,
					"patching_rect" : [ 270.0, 420.0, 122.0, 23.0 ],
					"rnbo_classname" : "out",
					"rnbo_extra_attributes" : 					{
						"meta" : ""
					}
,
					"rnbo_serial" : 1,
					"rnbo_uniqueid" : "out_obj-25",
					"rnboinfo" : 					{
						"needsInstanceInfo" : 1,
						"argnames" : 						{
							"index" : 							{
								"attrOrProp" : 2,
								"digest" : "outlet number",
								"defaultarg" : 1,
								"isalias" : 0,
								"aliases" : [  ],
								"settable" : 1,
								"attachable" : 0,
								"isparam" : 0,
								"deprecated" : 0,
								"type" : "number",
								"mandatory" : 1
							}
,
							"comment" : 							{
								"attrOrProp" : 2,
								"digest" : "mouse over comment",
								"isalias" : 0,
								"aliases" : [  ],
								"settable" : 1,
								"attachable" : 0,
								"isparam" : 0,
								"deprecated" : 0,
								"type" : "symbol"
							}
,
							"meta" : 							{
								"attrOrProp" : 2,
								"digest" : "A JSON formatted string containing metadata for use by the exported code",
								"isalias" : 0,
								"aliases" : [  ],
								"settable" : 1,
								"attachable" : 0,
								"isparam" : 0,
								"deprecated" : 0,
								"type" : "symbol",
								"defaultValue" : "",
								"label" : "Metadata",
								"displayorder" : 3
							}

						}
,
						"inputs" : [ 							{
								"name" : "in1",
								"type" : [ "bang", "number", "list" ],
								"digest" : "value sent to outlet with index 3",
								"displayName" : "test",
								"hot" : 1,
								"docked" : 0
							}
 ],
						"outputs" : [  ],
						"helpname" : "out",
						"aliasOf" : "out",
						"classname" : "out",
						"operator" : 0,
						"versionId" : -735743983,
						"changesPatcherIO" : 1
					}
,
					"text" : "out 3 @comment test"
				}

			}
, 			{
				"box" : 				{
					"id" : "obj-22",
					"maxclass" : "newobj",
					"numinlets" : 2,
					"numoutlets" : 1,
					"outlettype" : [ "signal" ],
					"patching_rect" : [ 270.0, 150.0, 32.0, 23.0 ],
					"rnbo_classname" : "+~",
					"rnbo_serial" : 1,
					"rnbo_uniqueid" : "+~_obj-22",
					"text" : "+~ 1"
				}

			}
, 			{
				"box" : 				{
					"id" : "obj-21",
					"maxclass" : "newobj",
					"numinlets" : 2,
					"numoutlets" : 1,
					"outlettype" : [ "signal" ],
					"patching_rect" : [ 165.0, 180.0, 29.5, 23.0 ],
					"rnbo_classname" : "*~",
					"rnbo_serial" : 1,
					"rnbo_uniqueid" : "*~_obj-21",
					"text" : "*~"
				}

			}
, 			{
				"box" : 				{
					"id" : "obj-19",
					"maxclass" : "newobj",
					"numinlets" : 2,
					"numoutlets" : 1,
					"outlettype" : [ "signal" ],
					"patching_rect" : [ 270.0, 120.0, 29.5, 23.0 ],
					"rnbo_classname" : "*~",
					"rnbo_serial" : 2,
					"rnbo_uniqueid" : "*~_obj-19",
					"text" : "*~"
				}

			}
, 			{
				"box" : 				{
					"id" : "obj-16",
					"maxclass" : "newobj",
					"numinlets" : 0,
					"numoutlets" : 1,
					"outlettype" : [ "" ],
					"patching_rect" : [ 390.0, 30.0, 90.0, 23.0 ],
					"rnbo_classname" : "r",
					"rnbo_serial" : 8,
					"rnbo_uniqueid" : "wobble_depth",
					"text" : "r wobble_depth",
					"varname" : "wobble_depth"
				}

			}
, 			{
				"box" : 				{
					"id" : "obj-15",
					"maxclass" : "newobj",
					"numinlets" : 2,
					"numoutlets" : 2,
					"outlettype" : [ "signal", "signal" ],
					"patching_rect" : [ 270.0, 90.0, 42.0, 23.0 ],
					"rnbo_classname" : "cycle~",
					"rnbo_extra_attributes" : 					{
						"interp" : "linear",
						"buffername" : "RNBODefaultSinus",
						"index" : "freq"
					}
,
					"rnbo_serial" : 1,
					"rnbo_uniqueid" : "cycle~_obj-15",
					"text" : "cycle~"
				}

			}
, 			{
				"box" : 				{
					"id" : "obj-14",
					"maxclass" : "newobj",
					"numinlets" : 0,
					"numoutlets" : 1,
					"outlettype" : [ "" ],
					"patching_rect" : [ 270.0, 30.0, 80.0, 23.0 ],
					"rnbo_classname" : "r",
					"rnbo_serial" : 7,
					"rnbo_uniqueid" : "wobble_rate",
					"text" : "r wobble_rate",
					"varname" : "wobble_rate"
				}

			}
, 			{
				"box" : 				{
					"id" : "obj-13",
					"maxclass" : "newobj",
					"numinlets" : 1,
					"numoutlets" : 1,
					"outlettype" : [ "signal" ],
					"patching_rect" : [ 75.0, 284.0, 63.0, 23.0 ],
					"rnbo_classname" : "feedback~",
					"rnbo_serial" : 1,
					"rnbo_uniqueid" : "feedback~_obj-13",
					"rnboinfo" : 					{
						"needsInstanceInfo" : 1,
						"argnames" : 						{
							"input" : 							{
								"attrOrProp" : 1,
								"digest" : "Signal to feed back.",
								"isalias" : 0,
								"aliases" : [  ],
								"settable" : 0,
								"attachable" : 0,
								"isparam" : 0,
								"deprecated" : 0,
								"inlet" : 1,
								"type" : "signal"
							}
,
							"output" : 							{
								"attrOrProp" : 1,
								"digest" : "Signal that was fed back (with one signal buffer delay).",
								"isalias" : 0,
								"aliases" : [  ],
								"settable" : 0,
								"attachable" : 0,
								"isparam" : 0,
								"deprecated" : 0,
								"outlet" : 1,
								"type" : "signal"
							}

						}
,
						"inputs" : [ 							{
								"name" : "input",
								"type" : "signal",
								"digest" : "Signal to feed back.",
								"hot" : 1,
								"docked" : 0
							}
 ],
						"outputs" : [ 							{
								"name" : "output",
								"type" : "signal",
								"digest" : "Signal that was fed back (with one signal buffer delay).",
								"docked" : 0
							}
 ],
						"helpname" : "feedback~",
						"aliasOf" : "feedback~",
						"classname" : "feedback~",
						"operator" : 0,
						"versionId" : -653846986,
						"changesPatcherIO" : 0
					}
,
					"text" : "feedback~"
				}

			}
, 			{
				"box" : 				{
					"id" : "obj-11",
					"maxclass" : "newobj",
					"numinlets" : 2,
					"numoutlets" : 1,
					"outlettype" : [ "signal" ],
					"patching_rect" : [ 75.0, 224.0, 40.0, 23.0 ],
					"rnbo_classname" : "*~",
					"rnbo_serial" : 3,
					"rnbo_uniqueid" : "*~_obj-11",
					"text" : "*~ 0.5"
				}

			}
, 			{
				"box" : 				{
					"id" : "obj-10",
					"maxclass" : "newobj",
					"numinlets" : 2,
					"numoutlets" : 1,
					"outlettype" : [ "signal" ],
					"patching_rect" : [ 30.0, 195.0, 29.5, 23.0 ],
					"rnbo_classname" : "+~",
					"rnbo_serial" : 2,
					"rnbo_uniqueid" : "+~_obj-10",
					"text" : "+~"
				}

			}
, 			{
				"box" : 				{
					"id" : "obj-6",
					"maxclass" : "newobj",
					"numinlets" : 2,
					"numoutlets" : 1,
					"outlettype" : [ "" ],
					"patching_rect" : [ 165.0, 150.0, 29.5, 23.0 ],
					"rnbo_classname" : "*",
					"rnbo_extra_attributes" : 					{
						"hot" : 0
					}
,
					"rnbo_serial" : 5,
					"rnbo_uniqueid" : "*_obj-6",
					"text" : "*"
				}

			}
, 			{
				"box" : 				{
					"id" : "obj-7",
					"maxclass" : "newobj",
					"numinlets" : 2,
					"numoutlets" : 1,
					"outlettype" : [ "signal" ],
					"patching_rect" : [ 75.0, 254.0, 104.0, 23.0 ],
					"rnbo_classname" : "delay~",
					"rnbo_extra_attributes" : 					{
						"interp" : "linear",
						"maxdelayms" : 0.0,
						"ramp" : 50.0
					}
,
					"rnbo_serial" : 1,
					"rnbo_uniqueid" : "delay~_obj-7",
					"text" : "delay~ samplerate"
				}

			}
, 			{
				"box" : 				{
					"id" : "obj-4",
					"maxclass" : "newobj",
					"numinlets" : 1,
					"numoutlets" : 0,
					"patching_rect" : [ 30.0, 435.0, 43.0, 23.0 ],
					"rnbo_classname" : "out~",
					"rnbo_extra_attributes" : 					{
						"meta" : "",
						"comment" : ""
					}
,
					"rnbo_serial" : 1,
					"rnbo_uniqueid" : "out~_obj-4",
					"rnboinfo" : 					{
						"needsInstanceInfo" : 1,
						"argnames" : 						{
							"in1" : 							{
								"attrOrProp" : 1,
								"digest" : "signal sent to outlet with index 1",
								"isalias" : 0,
								"aliases" : [  ],
								"settable" : 0,
								"attachable" : 0,
								"isparam" : 0,
								"deprecated" : 0,
								"inlet" : 1,
								"type" : "signal"
							}
,
							"index" : 							{
								"attrOrProp" : 2,
								"digest" : "outlet number",
								"defaultarg" : 1,
								"isalias" : 0,
								"aliases" : [  ],
								"settable" : 1,
								"attachable" : 0,
								"isparam" : 0,
								"deprecated" : 0,
								"type" : "number",
								"mandatory" : 1
							}
,
							"comment" : 							{
								"attrOrProp" : 2,
								"digest" : "mouse over comment",
								"isalias" : 0,
								"aliases" : [  ],
								"settable" : 1,
								"attachable" : 0,
								"isparam" : 0,
								"deprecated" : 0,
								"type" : "symbol"
							}
,
							"meta" : 							{
								"attrOrProp" : 2,
								"digest" : "A JSON formatted string containing metadata for use by the exported code",
								"isalias" : 0,
								"aliases" : [  ],
								"settable" : 1,
								"attachable" : 0,
								"isparam" : 0,
								"deprecated" : 0,
								"type" : "symbol",
								"defaultValue" : "",
								"label" : "Metadata",
								"displayorder" : 3
							}

						}
,
						"inputs" : [ 							{
								"name" : "in1",
								"type" : "signal",
								"digest" : "signal sent to outlet with index 1",
								"displayName" : "",
								"hot" : 1,
								"docked" : 0
							}
 ],
						"outputs" : [  ],
						"helpname" : "out~",
						"aliasOf" : "out~",
						"classname" : "out~",
						"operator" : 0,
						"versionId" : 374499139,
						"changesPatcherIO" : 1
					}
,
					"text" : "out~ 1"
				}

			}
, 			{
				"box" : 				{
					"id" : "obj-1",
					"maxclass" : "newobj",
					"numinlets" : 0,
					"numoutlets" : 1,
					"outlettype" : [ "signal" ],
					"patching_rect" : [ 30.0, 30.0, 35.0, 23.0 ],
					"rnbo_classname" : "in~",
					"rnbo_extra_attributes" : 					{
						"meta" : "",
						"comment" : ""
					}
,
					"rnbo_serial" : 1,
					"rnbo_uniqueid" : "in~_obj-1",
					"rnboinfo" : 					{
						"needsInstanceInfo" : 1,
						"argnames" : 						{
							"out1" : 							{
								"attrOrProp" : 1,
								"digest" : "signal from inlet with index 1",
								"isalias" : 0,
								"aliases" : [  ],
								"settable" : 0,
								"attachable" : 0,
								"isparam" : 0,
								"deprecated" : 0,
								"outlet" : 1,
								"type" : "signal"
							}
,
							"index" : 							{
								"attrOrProp" : 2,
								"digest" : "inlet number",
								"defaultarg" : 1,
								"isalias" : 0,
								"aliases" : [  ],
								"settable" : 1,
								"attachable" : 0,
								"isparam" : 0,
								"deprecated" : 0,
								"type" : "number",
								"mandatory" : 1
							}
,
							"comment" : 							{
								"attrOrProp" : 2,
								"digest" : "mouse over comment",
								"isalias" : 0,
								"aliases" : [  ],
								"settable" : 1,
								"attachable" : 0,
								"isparam" : 0,
								"deprecated" : 0,
								"type" : "symbol"
							}
,
							"meta" : 							{
								"attrOrProp" : 2,
								"digest" : "A JSON formatted string containing metadata for use by the exported code",
								"isalias" : 0,
								"aliases" : [  ],
								"settable" : 1,
								"attachable" : 0,
								"isparam" : 0,
								"deprecated" : 0,
								"type" : "symbol",
								"defaultValue" : "",
								"label" : "Metadata",
								"displayorder" : 3
							}

						}
,
						"inputs" : [  ],
						"outputs" : [ 							{
								"name" : "out1",
								"type" : "signal",
								"digest" : "signal from inlet with index 1",
								"displayName" : "",
								"docked" : 0
							}
 ],
						"helpname" : "in~",
						"aliasOf" : "in~",
						"classname" : "in~",
						"operator" : 0,
						"versionId" : -176007711,
						"changesPatcherIO" : 1
					}
,
					"text" : "in~ 1"
				}

			}
 ],
		"lines" : [ 			{
				"patchline" : 				{
					"destination" : [ "obj-10", 0 ],
					"source" : [ "obj-1", 0 ]
				}

			}
, 			{
				"patchline" : 				{
					"destination" : [ "obj-11", 0 ],
					"order" : 0,
					"source" : [ "obj-10", 0 ]
				}

			}
, 			{
				"patchline" : 				{
					"destination" : [ "obj-4", 0 ],
					"order" : 1,
					"source" : [ "obj-10", 0 ]
				}

			}
, 			{
				"patchline" : 				{
					"destination" : [ "obj-7", 0 ],
					"source" : [ "obj-11", 0 ]
				}

			}
, 			{
				"patchline" : 				{
					"destination" : [ "obj-10", 1 ],
					"source" : [ "obj-13", 0 ]
				}

			}
, 			{
				"patchline" : 				{
					"destination" : [ "obj-18", 0 ],
					"source" : [ "obj-14", 0 ]
				}

			}
, 			{
				"patchline" : 				{
					"destination" : [ "obj-19", 0 ],
					"source" : [ "obj-15", 0 ]
				}

			}
, 			{
				"patchline" : 				{
					"destination" : [ "obj-19", 1 ],
					"source" : [ "obj-16", 0 ]
				}

			}
, 			{
				"patchline" : 				{
					"destination" : [ "obj-6", 0 ],
					"source" : [ "obj-17", 0 ]
				}

			}
, 			{
				"patchline" : 				{
					"destination" : [ "obj-15", 0 ],
					"source" : [ "obj-18", 0 ]
				}

			}
, 			{
				"patchline" : 				{
					"destination" : [ "obj-22", 0 ],
					"source" : [ "obj-19", 0 ]
				}

			}
, 			{
				"patchline" : 				{
					"destination" : [ "obj-17", 0 ],
					"source" : [ "obj-20", 0 ]
				}

			}
, 			{
				"patchline" : 				{
					"destination" : [ "obj-7", 1 ],
					"source" : [ "obj-21", 0 ]
				}

			}
, 			{
				"patchline" : 				{
					"destination" : [ "obj-21", 1 ],
					"source" : [ "obj-22", 0 ]
				}

			}
, 			{
				"patchline" : 				{
					"destination" : [ "obj-11", 1 ],
					"source" : [ "obj-23", 0 ]
				}

			}
, 			{
				"patchline" : 				{
					"destination" : [ "obj-26", 0 ],
					"source" : [ "obj-24", 0 ]
				}

			}
, 			{
				"patchline" : 				{
					"destination" : [ "obj-6", 1 ],
					"source" : [ "obj-26", 0 ]
				}

			}
, 			{
				"patchline" : 				{
					"destination" : [ "obj-21", 0 ],
					"source" : [ "obj-6", 0 ]
				}

			}
, 			{
				"patchline" : 				{
					"destination" : [ "obj-13", 0 ],
					"source" : [ "obj-7", 0 ]
				}

			}
 ],
		"default_bgcolor" : [ 0.031372549019608, 0.125490196078431, 0.211764705882353, 1.0 ],
		"color" : [ 0.929412, 0.929412, 0.352941, 1.0 ],
		"elementcolor" : [ 0.357540726661682, 0.515565991401672, 0.861786782741547, 1.0 ],
		"accentcolor" : [ 0.343034118413925, 0.506230533123016, 0.86220508813858, 1.0 ],
		"stripecolor" : [ 0.258338063955307, 0.352425158023834, 0.511919498443604, 1.0 ],
		"bgfillcolor_type" : "color",
		"bgfillcolor_color" : [ 0.031372549019608, 0.125490196078431, 0.211764705882353, 1.0 ],
		"bgfillcolor_color1" : [ 0.031372549019608, 0.125490196078431, 0.211764705882353, 1.0 ],
		"bgfillcolor_color2" : [ 0.263682, 0.004541, 0.038797, 1.0 ],
		"bgfillcolor_angle" : 270.0,
		"bgfillcolor_proportion" : 0.39,
		"bgfillcolor_autogradient" : 0.0
	}

}
